<?xml version="1.0" encoding="UTF-8" standalone="no"?>
<!-- Created with Inkscape (http://www.inkscape.org/) -->

<svg
   width="163.27414"
   height="29.449207"
   viewBox="0 0 163.27414 29.449207"
   version="1.1"
   id="svg1"
   xml:space="preserve"
   inkscape:version="1.3.2 (091e20e, 2023-11-25, custom)"
   sodipodi:docname="seraplex-logo-1.svg"
   xmlns:inkscape="http://www.inkscape.org/namespaces/inkscape"
   xmlns:sodipodi="http://sodipodi.sourceforge.net/DTD/sodipodi-0.dtd"
   xmlns="http://www.w3.org/2000/svg"
   xmlns:svg="http://www.w3.org/2000/svg"><sodipodi:namedview
     id="namedview1"
     pagecolor="#ffffff"
     bordercolor="#000000"
     borderopacity="0.25"
     inkscape:showpageshadow="2"
     inkscape:pageopacity="0.0"
     inkscape:pagecheckerboard="0"
     inkscape:deskcolor="#d1d1d1"
     inkscape:document-units="px"
     inkscape:zoom="4.0307025"
     inkscape:cx="71.079421"
     inkscape:cy="16.250269"
     inkscape:window-width="1920"
     inkscape:window-height="1009"
     inkscape:window-x="-8"
     inkscape:window-y="-8"
     inkscape:window-maximized="1"
     inkscape:current-layer="layer1" /><defs
     id="defs1"><inkscape:path-effect
       effect="bspline"
       id="path-effect14"
       is_visible="true"
       lpeversion="1.3"
       weight="33.333333"
       steps="2"
       helper_size="0"
       apply_no_weight="true"
       apply_with_weight="true"
       only_selected="false"
       uniform="false" /><inkscape:path-effect
       effect="bspline"
       id="path-effect13"
       is_visible="true"
       lpeversion="1.3"
       weight="33.333333"
       steps="2"
       helper_size="0"
       apply_no_weight="true"
       apply_with_weight="true"
       only_selected="false"
       uniform="false" /><inkscape:path-effect
       effect="bspline"
       id="path-effect12"
       is_visible="true"
       lpeversion="1.3"
       weight="33.333333"
       steps="2"
       helper_size="0"
       apply_no_weight="true"
       apply_with_weight="true"
       only_selected="false"
       uniform="false" /><inkscape:path-effect
       effect="bspline"
       id="path-effect11"
       is_visible="true"
       lpeversion="1.3"
       weight="33.333333"
       steps="2"
       helper_size="0"
       apply_no_weight="true"
       apply_with_weight="true"
       only_selected="false"
       uniform="false" /></defs><g
     inkscape:label="Layer 1"
     inkscape:groupmode="layer"
     id="layer1"
     transform="translate(-8.3629309,-75.275396)"><g
       id="g15"
       transform="translate(3.0469461,-2.5419305)"><g
         id="g14"
         transform="translate(-70.427339,-3.6955678)"><path
           style="display:inline;fill:#aa2125;fill-opacity:1;stroke:none;stroke-width:1;stroke-dasharray:none;stroke-opacity:1"
           d="m 87.72105,86.297799 c -0.03323,0.171677 -0.09968,0.515028 -0.13291,1.002374 -0.03323,0.487345 -0.03323,1.118659 -0.121837,1.799834 -0.08861,0.681174 -0.26582,1.412168 -0.448574,2.037961 -0.182754,0.625793 -0.37104,1.146349 -0.603636,1.672459 -0.232597,0.52611 -0.509489,1.057743 -0.803003,1.522934 -0.293514,0.465191 -0.603633,0.863915 -0.908223,1.257113 -0.30459,0.393198 -0.603633,0.780847 -0.908223,1.190659 -0.30459,0.409812 -0.614708,0.841763 -0.91376,1.362336 -0.299052,0.520573 -0.58702,1.129735 -0.836229,1.718468 -0.249209,0.588733 -0.459649,1.157013 -0.575946,1.727423 -0.116298,0.57041 -0.138451,1.14294 -0.116299,1.70611 0.02215,0.56316 0.08861,1.11695 0.215981,1.68182 0.127374,0.56488 0.315659,1.14081 0.531643,1.63369 0.215984,0.49289 0.459649,0.90269 0.775316,1.32911 0.315666,0.42643 0.703316,0.86946 1.107589,1.23496 0.404272,0.36551 0.825149,0.65348 1.273727,0.90269 0.448578,0.24921 0.924828,0.45965 1.450939,0.60917 0.52611,0.14953 1.10203,0.23813 1.600459,0.26582 0.498429,0.0277 0.919305,-0.006 1.522941,-0.10523 0.603636,-0.0997 1.390005,-0.26582 2.049034,-0.52057 0.65903,-0.25475 1.190663,-0.5981 1.661393,-0.93038 0.470729,-0.33228 0.880516,-0.65346 1.312487,-1.14635 0.431971,-0.49289 0.886072,-1.15743 1.196198,-1.67246 0.310126,-0.51503 0.476263,-0.88053 0.62025,-1.29588 0.143987,-0.41535 0.265819,-0.88053 0.354427,-1.32357 0.08861,-0.44304 0.143985,-0.86391 0.177213,-1.25541 0.03323,-0.39149 0.04431,-0.75357 0.04431,-1.2243 0,-0.47073 -0.01108,-1.05008 -0.06092,-1.577897 -0.04984,-0.527816 -0.138448,-1.004069 -0.232594,-1.439927 -0.09415,-0.435859 -0.193827,-0.831298 -0.321201,-1.21342 -0.127375,-0.382122 -0.282434,-0.750905 -0.43196,-1.123594 -0.149526,-0.372689 -0.293509,-0.749261 -0.45965,-1.114769 -0.16614,-0.365508 -0.354427,-0.71993 -0.579544,-1.102052 -0.225117,-0.382122 -0.487052,-0.791922 -0.708571,-1.168506 -0.221519,-0.376583 -0.402612,-0.719929 -0.659302,-1.10759 -0.25669,-0.38766 -0.58896,-0.819611 -0.904626,-1.218347 -0.315666,-0.398736 -0.614709,-0.764233 -0.946989,-1.168507 -0.33228,-0.404274 -0.697777,-0.847301 -1.057747,-1.251575 -0.35997,-0.404274 -0.714392,-0.769771 -1.02452,-1.079898 -0.310127,-0.310128 -0.575943,-0.564868 -0.791924,-0.747621 -0.215982,-0.182753 -0.382117,-0.29351 -0.592561,-0.287971 -0.210445,0.0055 -0.465185,0.127371 -0.592558,0.188289 -0.127373,0.06092 -0.127368,0.06093 -0.160596,0.232604 z"
           id="path11"
           inkscape:path-effect="#path-effect11"
           inkscape:original-d="m 87.754278,86.126122 c -0.06646,0.343353 -0.132911,0.686705 -0.199366,1.030058 0,0.631338 0,1.262652 0,1.893977 -0.177218,0.731024 -0.354428,1.462018 -0.531643,2.193027 -0.188293,0.520577 -0.37658,1.041133 -0.56487,1.5617 -0.276903,0.531653 -0.553795,1.063286 -0.830692,1.594928 -0.310131,0.39874 -0.62025,0.797464 -0.930375,1.196196 -0.299055,0.387664 -0.598098,0.775313 -0.897147,1.162969 -0.310131,0.431968 -0.62025,0.863919 -0.930374,1.295879 -0.287979,0.609186 -0.575947,1.218348 -0.86392,1.827522 -0.210446,0.568292 -0.420884,1.136572 -0.631326,1.704852 -0.02215,0.57254 -0.0443,1.14507 -0.06646,1.7176 0.06646,0.5538 0.132911,1.10759 0.199366,1.66138 0.188294,0.57596 0.37658,1.15189 0.56487,1.72784 0.243675,0.40982 0.48734,0.81962 0.731009,1.22942 0.387664,0.44305 0.775313,0.88608 1.162969,1.32911 0.420892,0.28798 0.841767,0.57595 1.262651,0.86392 0.476273,0.21045 0.952527,0.42088 1.42879,0.63133 0.575956,0.0886 1.151875,0.17721 1.727839,0.26582 0.420897,-0.0332 0.841767,-0.0665 1.262651,-0.0997 0.78639,-0.16614 1.57276,-0.33227 2.359165,-0.49841 0.531654,-0.34336 1.063286,-0.68671 1.594928,-1.03006 0.409817,-0.32121 0.819606,-0.64239 1.229424,-0.9636 0.454123,-0.66457 0.908223,-1.32911 1.362334,-1.99366 0.166142,-0.36551 0.332277,-0.73101 0.498416,-1.09651 0.121837,-0.4652 0.243669,-0.93038 0.365504,-1.39557 0.05538,-0.42089 0.110759,-0.84176 0.166138,-1.26265 0.01108,-0.3621 0.02215,-0.72418 0.03323,-1.08627 -0.01108,-0.57937 -0.02215,-1.15872 -0.03323,-1.73808 -0.08861,-0.476273 -0.177214,-0.952526 -0.265821,-1.42879 -0.09968,-0.395454 -0.199366,-0.790892 -0.299049,-1.186338 -0.155066,-0.368798 -0.310125,-0.737581 -0.465188,-1.106371 -0.143989,-0.376588 -0.287973,-0.75316 -0.431959,-1.129741 -0.188294,-0.354435 -0.37658,-0.708857 -0.564871,-1.063285 -0.261944,-0.409816 -0.523879,-0.819616 -0.785818,-1.229424 -0.1811,-0.343359 -0.362192,-0.686705 -0.543288,-1.030058 -0.332284,-0.431968 -0.664554,-0.863919 -0.996831,-1.295879 -0.299055,-0.365512 -0.598098,-0.731009 -0.897147,-1.096513 -0.365511,-0.443044 -0.731008,-0.886071 -1.096513,-1.329107 -0.354435,-0.365512 -0.708857,-0.731009 -1.063285,-1.096513 -0.265827,-0.254751 -0.531643,-0.509491 -0.797464,-0.764236 -0.166142,-0.110761 -0.332277,-0.221518 -0.498415,-0.332277 -0.254751,0.121837 -0.509491,0.24367 -0.764237,0.365504 z"
           sodipodi:nodetypes="scccccccccccccccccccccccccccccccccccccccccss" /><path
           style="display:inline;fill:#aa2125;fill-opacity:1;stroke:none;stroke-width:1;stroke-dasharray:none;stroke-opacity:1"
           d="m 79.163428,82.04272 c -0.06222,0.26122 -0.0818,0.625345 -0.118993,0.989474 -0.0372,0.364129 -0.09201,0.728245 -0.185978,1.121739 -0.09397,0.393494 -0.227088,0.81634 -0.38566,1.172637 -0.158572,0.356297 -0.342589,0.646025 -0.512786,0.893318 -0.170196,0.247293 -0.326563,0.452136 -0.529369,0.710336 -0.202806,0.2582 -0.452038,0.56974 -0.671606,0.90651 -0.219567,0.33677 -0.409458,0.69875 -0.566716,1.099313 -0.157258,0.400564 -0.281874,0.839687 -0.357536,1.213545 -0.07566,0.373859 -0.102364,0.682432 -0.08753,1.008817 0.01484,0.326386 0.07121,0.670563 0.158742,0.976177 0.08753,0.305615 0.206212,0.572649 0.3427,0.826339 0.136489,0.25369 0.290775,0.494021 0.461386,0.712105 0.17061,0.218085 0.357534,0.41391 0.577103,0.593421 0.219568,0.179512 0.471767,0.342699 0.750678,0.483638 0.278911,0.140939 0.584517,0.259621 0.91832,0.326381 0.333803,0.06676 0.695783,0.0816 1.026618,0.06528 0.330834,-0.01632 0.630507,-0.06379 0.933155,-0.149839 0.302648,-0.08605 0.608254,-0.210663 0.870845,-0.347152 0.262591,-0.136488 0.482152,-0.284841 0.716556,-0.482156 0.234404,-0.197314 0.483636,-0.443579 0.70172,-0.703204 0.218084,-0.259624 0.405009,-0.532593 0.556332,-0.802602 0.151323,-0.270009 0.267039,-0.537044 0.357536,-0.823373 0.0905,-0.286328 0.155773,-0.591934 0.204729,-0.878263 0.04896,-0.286328 0.08159,-0.553363 0.09049,-0.857494 0.0089,-0.304132 -0.0059,-0.645342 -0.03858,-0.974694 -0.03264,-0.329352 -0.08308,-0.646826 -0.157258,-0.949475 -0.07418,-0.302648 -0.172091,-0.59045 -0.283357,-0.882714 -0.111267,-0.292263 -0.235881,-0.588969 -0.359016,-0.857495 -0.123135,-0.268526 -0.244784,-0.508857 -0.406493,-0.778866 -0.161709,-0.27001 -0.363468,-0.569682 -0.551881,-0.847109 -0.188413,-0.277427 -0.363469,-0.532593 -0.542981,-0.775898 -0.179512,-0.243305 -0.363468,-0.474734 -0.54743,-0.694302 -0.183963,-0.219568 -0.36792,-0.427262 -0.577104,-0.657215 -0.209183,-0.229953 -0.44358,-0.482152 -0.646828,-0.677983 -0.203249,-0.19583 -0.375337,-0.335281 -0.514792,-0.415393 -0.139455,-0.08011 -0.246269,-0.100882 -0.352108,-0.03211 -0.10584,0.06877 -0.210699,0.227086 -0.272918,0.488307 z"
           id="path12"
           inkscape:path-effect="#path-effect12"
           inkscape:original-d="m 79.120785,81.939816 c -0.01958,0.364124 -0.03915,0.728249 -0.05873,1.092374 -0.05482,0.364132 -0.109629,0.728249 -0.164444,1.092374 -0.133123,0.422863 -0.266242,0.845709 -0.399363,1.268564 -0.184023,0.289739 -0.36804,0.579467 -0.55206,0.869201 -0.156373,0.204852 -0.31274,0.409695 -0.46911,0.614543 -0.249242,0.311552 -0.498474,0.623092 -0.747711,0.934638 -0.189898,0.361994 -0.379789,0.723974 -0.569684,1.085961 -0.124621,0.43914 -0.249237,0.878263 -0.373856,1.317395 -0.0267,0.308585 -0.05341,0.617158 -0.08011,0.925737 0.05638,0.344191 0.11275,0.688369 0.169126,1.032553 0.118686,0.267045 0.237368,0.534079 0.356052,0.801119 0.154293,0.24034 0.308579,0.480671 0.462869,0.721007 0.186931,0.195833 0.373855,0.391658 0.560783,0.587487 0.252209,0.163194 0.504408,0.326381 0.756612,0.489572 0.305618,0.118687 0.611224,0.237369 0.916836,0.356053 0.361994,0.01484 0.723974,0.02967 1.085961,0.04451 0.299683,-0.04747 0.599355,-0.09495 0.899033,-0.142421 0.305618,-0.124621 0.611224,-0.249237 0.916836,-0.373856 0.21957,-0.148358 0.439132,-0.29671 0.658697,-0.445066 0.249242,-0.246274 0.498474,-0.492539 0.747711,-0.738809 0.186932,-0.272979 0.373856,-0.545948 0.560783,-0.818922 0.11572,-0.267044 0.231435,-0.534079 0.347152,-0.801118 0.06528,-0.305618 0.130552,-0.611224 0.195829,-0.916836 0.03264,-0.267045 0.06528,-0.534079 0.09791,-0.801119 -0.01484,-0.341224 -0.02967,-0.682434 -0.04451,-1.023651 -0.05044,-0.317487 -0.100882,-0.634961 -0.151323,-0.952442 -0.09792,-0.287815 -0.195829,-0.575618 -0.293743,-0.863427 -0.124614,-0.29672 -0.24923,-0.593425 -0.373849,-0.890135 C 83.452828,86.164761 83.33118,85.92443 83.209528,85.684095 83.007761,85.384411 82.806002,85.084739 82.604239,84.785062 82.429176,84.529885 82.25412,84.274719 82.079061,84.019548 81.895096,83.788109 81.71114,83.55668 81.527179,83.325245 81.343215,83.117544 81.159258,82.90985 80.975297,82.702153 c -0.234406,-0.252209 -0.468803,-0.504408 -0.703204,-0.756612 -0.172096,-0.139457 -0.344184,-0.278908 -0.516276,-0.418362 -0.106818,-0.02077 -0.213632,-0.04154 -0.320448,-0.06231 -0.104863,0.158318 -0.209722,0.31663 -0.314584,0.474947 z" /><path
           style="fill:none;fill-opacity:1;stroke:#ffffff;stroke-width:1.25;stroke-linecap:round;stroke-linejoin:round;stroke-dasharray:none;stroke-opacity:1"
           d="m 83.478488,103.84708 c 0.0818,0.47717 0.163604,0.95435 0.32721,1.38381 0.163605,0.42946 0.409004,0.81119 0.729399,1.16567 0.320395,0.35448 0.715761,0.68168 1.117956,0.92026 0.402194,0.23859 0.811192,0.38856 1.186119,0.484 0.374927,0.0954 0.71576,0.13633 1.0566,0.17723"
           id="path13"
           inkscape:path-effect="#path-effect13"
           inkscape:original-d="m 83.478488,103.84708 c 0.0818,0.47717 0.163603,0.95435 0.245405,1.43152 0.245409,0.38175 0.490809,0.76348 0.736214,1.14522 0.395382,0.32722 0.790748,0.65442 1.186122,0.98162 0.409016,0.14998 0.818016,0.29994 1.227024,0.44991 0.340846,0.0409 0.681679,0.0818 1.022519,0.1227" /><path
           style="fill:none;fill-opacity:1;stroke:#ffffff;stroke-width:0.75;stroke-linecap:round;stroke-linejoin:round;stroke-dasharray:none;stroke-opacity:1"
           d="m 76.923129,91.234073 c 0.03376,0.236344 0.06753,0.47269 0.137467,0.680097 0.06994,0.207407 0.176053,0.385868 0.306285,0.566746 0.130233,0.180878 0.284577,0.364163 0.472691,0.508865 0.188114,0.144702 0.409985,0.250814 0.636686,0.31593 0.2267,0.06511 0.458217,0.08923 0.689739,0.113348"
           id="path14"
           inkscape:path-effect="#path-effect14"
           inkscape:original-d="m 76.923129,91.234073 c 0.03376,0.236345 0.06753,0.47269 0.101291,0.709035 0.106116,0.178469 0.212229,0.35693 0.318343,0.535395 0.154351,0.183291 0.308695,0.366576 0.463043,0.549864 0.22188,0.106116 0.443751,0.212228 0.665626,0.318342 0.231526,0.02412 0.463043,0.04823 0.694565,0.07235" /></g><text
         xml:space="preserve"
         style="font-style:normal;font-variant:normal;font-weight:normal;font-stretch:normal;font-size:26.6667px;font-family:'LEMON MILK';-inkscape-font-specification:'LEMON MILK';text-align:center;text-anchor:middle;fill:#262626;fill-opacity:1;stroke:none;stroke-width:0.75;stroke-linecap:round;stroke-linejoin:round;stroke-dasharray:none;stroke-opacity:1"
         x="100.5041"
         y="103.0758"
         id="text14"><tspan
           sodipodi:role="line"
           id="tspan14"
           x="100.5041"
           y="103.0758"
           style="font-size:26.6667px">seraplex</tspan></text></g></g></svg>
