<?xml version="1.0" encoding="UTF-8" standalone="no"?>
<svg
   width="168.94299"
   zoomAndPan="magnify"
   viewBox="0 0 126.70724 28.714395"
   height="38.285862"
   preserveAspectRatio="xMidYMid"
   version="1.0"
   id="svg28"
   sodipodi:docname="seraplex-logo.svg"
   inkscape:version="1.3 (0e150ed6c4, 2023-07-21)"
   xmlns:inkscape="http://www.inkscape.org/namespaces/inkscape"
   xmlns:sodipodi="http://sodipodi.sourceforge.net/DTD/sodipodi-0.dtd"
   xmlns="http://www.w3.org/2000/svg"
   xmlns:svg="http://www.w3.org/2000/svg">
  <sodipodi:namedview
     id="namedview28"
     pagecolor="#ffffff"
     bordercolor="#000000"
     borderopacity="0.25"
     inkscape:showpageshadow="2"
     inkscape:pageopacity="0.0"
     inkscape:pagecheckerboard="0"
     inkscape:deskcolor="#d1d1d1"
     inkscape:zoom="2.3579016"
     inkscape:cx="62.131515"
     inkscape:cy="33.716419"
     inkscape:window-width="1920"
     inkscape:window-height="991"
     inkscape:window-x="-9"
     inkscape:window-y="-9"
     inkscape:window-maximized="1"
     inkscape:current-layer="svg28" />
  <defs
     id="defs2">
    <g
       id="g1" />
    <clipPath
       id="aab9cdde57">
      <path
         d="M 14.378906,210.8125 H 182.79687 v 10.32812 H 14.378906 Z m 0,0"
         clip-rule="nonzero"
         id="path1" />
    </clipPath>
    <clipPath
       id="c7607b1d64">
      <path
         d="M 194.89453,152.10937 H 358.66016 V 162.4375 H 194.89453 Z m 0,0"
         clip-rule="nonzero"
         id="path2" />
    </clipPath>
  </defs>
  <g
     id="g2"
     transform="matrix(0.54292393,0,0,0.54292393,-28.667026,-6.5623346)">
    <g
       clip-path="url(#aab9cdde57)"
       id="g3"
       transform="matrix(0.67791162,0,0,0.67791162,43.053556,-88.363564)">
      <path
         fill="#f5c400"
         d="M 182.79687,221.14062 H 14.371094 V 210.8125 H 182.79687 Z m 0,0"
         fill-opacity="1"
         fill-rule="nonzero"
         id="path3" />
    </g>
    <g
       clip-path="url(#c7607b1d64)"
       id="g4"
       transform="matrix(0.67791162,0,0,0.67791162,43.053556,-88.363564)">
      <path
         fill="#f5c400"
         d="M 194.89453,152.10937 H 358.64062 V 162.4375 H 194.89453 Z m 0,0"
         fill-opacity="1"
         fill-rule="nonzero"
         id="path4" />
    </g>
    <g
       fill="#000000"
       fill-opacity="1"
       id="g7"
       transform="matrix(0.67791162,0,0,0.67791162,43.053556,-88.363564)">
      <g
         transform="translate(19.355427,182.44215)"
         id="g6">
        <g
           id="g5">
          <path
             d="m 15.75,0.671875 c -2.824219,0 -5.25,-0.464844 -7.28125,-1.390625 C 6.4375,-1.644531 4.867188,-2.960938 3.765625,-4.671875 2.660156,-6.390625 2.109375,-8.398438 2.109375,-10.703125 H 9.59375 c 0,1.605469 0.550781,2.855469 1.65625,3.75 1.101562,0.898437 2.585938,1.34375 4.453125,1.34375 1.59375,0 2.851563,-0.3125 3.78125,-0.9375 0.925781,-0.625 1.390625,-1.5 1.390625,-2.625 0,-1.175781 -0.5625,-2.132813 -1.6875,-2.875 -1.117188,-0.738281 -2.855469,-1.363281 -5.21875,-1.875 -3.9375,-0.832031 -6.851562,-2.09375 -8.734375,-3.78125 -1.886719,-1.695313 -2.828125,-3.910156 -2.828125,-6.640625 0,-3.0625 1.117188,-5.476562 3.359375,-7.25 2.238281,-1.78125 5.289063,-2.671875 9.15625,-2.671875 2.65625,0 4.957031,0.460937 6.90625,1.375 1.957031,0.90625 3.472656,2.183594 4.546875,3.828125 1.070312,1.648438 1.609375,3.605469 1.609375,5.875 h -7.34375 c 0,-1.5 -0.5,-2.679688 -1.5,-3.546875 -0.992187,-0.863281 -2.359375,-1.296875 -4.109375,-1.296875 -1.605469,0 -2.871094,0.3125 -3.796875,0.9375 -0.929687,0.625 -1.390625,1.496094 -1.390625,2.609375 0,1.03125 0.507812,1.902344 1.53125,2.609375 1.019531,0.699219 2.8125,1.351562 5.375,1.953125 4.195312,0.992187 7.222656,2.320313 9.078125,3.984375 1.851563,1.667969 2.78125,3.828125 2.78125,6.484375 0,3.167969 -1.148437,5.648437 -3.4375,7.4375 -2.28125,1.792969 -5.421875,2.6875 -9.421875,2.6875 z m 0,0"
             id="path5" />
        </g>
      </g>
    </g>
    <g
       fill="#000000"
       fill-opacity="1"
       id="g10"
       transform="matrix(0.67791162,0,0,0.67791162,43.053556,-88.363564)">
      <g
         transform="translate(60.051902,182.44215)"
         id="g9">
        <g
           id="g8">
          <path
             d="m 4.03125,0 v -33.59375 h 22.078125 v 6.421875 h -14.5 v 6.96875 H 24.8125 v 6.375 H 11.609375 v 7.34375 h 15.03125 V 0 Z m 0,0"
             id="path7" />
        </g>
      </g>
    </g>
    <g
       fill="#000000"
       fill-opacity="1"
       id="g13"
       transform="matrix(0.67791162,0,0,0.67791162,43.053556,-88.363564)">
      <g
         transform="translate(99.068785,182.44215)"
         id="g12">
        <g
           id="g11">
          <path
             d="m 4.03125,0 v -33.59375 h 14.359375 c 2.550781,0 4.769531,0.464844 6.65625,1.390625 1.894531,0.929687 3.351563,2.257813 4.375,3.984375 1.019531,1.730469 1.53125,3.792969 1.53125,6.1875 0,2.460938 -0.5625,4.578125 -1.6875,6.359375 -1.117187,1.773437 -2.679687,3.109375 -4.6875,4.015625 L 31.53125,0 h -8.828125 l -6,-10.46875 H 11.65625 V 0 Z m 7.53125,-16.890625 h 5.8125 c 1.882812,0 3.332031,-0.4375 4.34375,-1.3125 1.007812,-0.882813 1.515625,-2.144531 1.515625,-3.78125 0,-1.632813 -0.507813,-2.890625 -1.515625,-3.765625 -1.011719,-0.882812 -2.460938,-1.328125 -4.34375,-1.328125 h -5.8125 z m 0,0"
             id="path10" />
        </g>
      </g>
    </g>
    <g
       fill="#000000"
       fill-opacity="1"
       id="g16"
       transform="matrix(0.67791162,0,0,0.67791162,43.053556,-88.363564)">
      <g
         transform="translate(142.78853,182.44215)"
         id="g15">
        <g
           id="g14">
          <path
             d="m 0.4375,0 13.34375,-33.59375 h 7.484375 L 34.609375,0 h -8.15625 L 24.1875,-5.8125 H 10.84375 L 8.59375,0 Z m 12.375,-11.8125 h 9.453125 l -4.75,-12.28125 z m 0,0"
             id="path13" />
        </g>
      </g>
    </g>
    <g
       fill="#000000"
       fill-opacity="1"
       id="g19"
       transform="matrix(0.67791162,0,0,0.67791162,43.053556,-88.363564)">
      <g
         transform="translate(199.86408,226.19323)"
         id="g18">
        <g
           id="g17">
          <path
             d="M 4.03125,0 V -33.59375 H 17.1875 c 2.71875,0 5.066406,0.496094 7.046875,1.484375 1.988281,0.992187 3.535156,2.398437 4.640625,4.21875 1.101562,1.824219 1.65625,3.96875 1.65625,6.4375 0,2.429687 -0.554688,4.554687 -1.65625,6.375 -1.105469,1.824219 -2.652344,3.234375 -4.640625,4.234375 -1.980469,0.992188 -4.328125,1.484375 -7.046875,1.484375 H 11.65625 V 0 Z m 7.578125,-15.9375 H 16.5625 c 1.976562,0 3.503906,-0.46875 4.578125,-1.40625 1.070313,-0.945312 1.609375,-2.300781 1.609375,-4.0625 0,-1.757812 -0.539062,-3.117188 -1.609375,-4.078125 -1.074219,-0.957031 -2.601563,-1.4375 -4.578125,-1.4375 h -4.953125 z m 0,0"
             id="path16" />
        </g>
      </g>
    </g>
    <g
       fill="#000000"
       fill-opacity="1"
       id="g22"
       transform="matrix(0.67791162,0,0,0.67791162,43.053556,-88.363564)">
      <g
         transform="translate(241.71228,226.19323)"
         id="g21">
        <g
           id="g20">
          <path
             d="m 4.03125,0 v -33.59375 h 7.625 v 26.4375 H 26.359375 V 0 Z m 0,0"
             id="path19" />
        </g>
      </g>
    </g>
    <g
       fill="#000000"
       fill-opacity="1"
       id="g25"
       transform="matrix(0.67791162,0,0,0.67791162,43.053556,-88.363564)">
      <g
         transform="translate(279.28951,226.19323)"
         id="g24">
        <g
           id="g23">
          <path
             d="m 4.03125,0 v -33.59375 h 22.078125 v 6.421875 h -14.5 v 6.96875 H 24.8125 v 6.375 H 11.609375 v 7.34375 h 15.03125 V 0 Z m 0,0"
             id="path22" />
        </g>
      </g>
    </g>
    <g
       fill="#000000"
       fill-opacity="1"
       id="g28"
       transform="matrix(0.67791162,0,0,0.67791162,43.053556,-88.363564)">
      <g
         transform="translate(318.30639,226.19323)"
         id="g27">
        <g
           id="g26">
          <path
             d="M 1.296875,0 12.71875,-17.1875 1.828125,-33.59375 H 10.5625 l 4.03125,6.234375 3.0625,4.65625 7.15625,-10.890625 H 33.5 L 22.65625,-17.234375 34.078125,0 h -8.96875 L 20.5,-7.109375 17.71875,-11.375 14.875,-7.109375 10.265625,0 Z m 0,0"
             id="path25" />
        </g>
      </g>
    </g>
  </g>
</svg>
